<?xml version="1.0" standalone="no"?>
<!DOCTYPE svg PUBLIC "-//W3C//DTD SVG 20010904//EN"
 "http://www.w3.org/TR/2001/REC-SVG-20010904/DTD/svg10.dtd">
<svg version="1.0" xmlns="http://www.w3.org/2000/svg"
 width="512.000000pt" height="512.000000pt" viewBox="0 0 512.000000 512.000000"
 preserveAspectRatio="xMidYMid meet">
<metadata>
Created by potrace 1.11, written by Peter Selinger 2001-2013
</metadata>
<g transform="translate(0.000000,512.000000) scale(0.100000,-0.100000)"
fill="#000000" stroke="none">
<path d="M2727 5100 c-20 -16 -27 -30 -27 -55 0 -28 10 -41 66 -91 51 -45 75
-74 100 -128 32 -65 33 -75 31 -160 -3 -76 -8 -100 -31 -149 -16 -32 -49 -77
-74 -100 -24 -23 -55 -52 -68 -64 -36 -33 -32 -78 8 -111 63 -52 109 -106 136
-161 24 -49 27 -68 27 -151 0 -82 -4 -103 -26 -151 -25 -52 -77 -114 -141
-166 -49 -40 -29 -113 33 -127 56 -12 185 106 238 219 87 183 62 394 -65 552
-19 23 -34 44 -34 47 0 4 13 20 29 36 36 38 85 130 104 195 18 63 22 185 7
250 -24 109 -97 221 -189 294 -53 42 -89 48 -124 21z"/>
<path d="M2154 4355 c-38 -38 -32 -78 19 -125 23 -22 45 -40 49 -40 3 0 24
-26 46 -59 70 -105 80 -248 26 -359 -25 -51 -52 -83 -126 -149 -41 -37 -52
-73 -31 -103 41 -58 103 -42 191 47 197 201 201 518 9 716 -87 90 -143 112
-183 72z"/>
<path d="M3260 4363 c-48 -34 -42 -96 13 -135 128 -89 185 -256 140 -408 -21
-71 -74 -142 -145 -195 -32 -23 -38 -33 -38 -65 0 -69 63 -96 127 -53 57 38
126 116 161 180 46 87 62 163 57 268 -6 131 -49 236 -137 327 -80 84 -137 110
-178 81z"/>
<path d="M1203 3124 c-43 -15 -77 -46 -98 -90 -14 -29 -15 -98 -14 -566 1
-503 4 -564 31 -726 2 -11 -2 -16 -12 -13 -92 21 -240 -6 -336 -62 -67 -40
-89 -73 -74 -112 8 -21 3 -30 -38 -73 -42 -44 -50 -48 -75 -41 -22 6 -33 3
-52 -14 -43 -39 -94 -152 -112 -250 -14 -73 -8 -218 11 -267 10 -25 20 -52 22
-61 5 -13 -8 -15 -92 -14 -100 0 -147 -12 -159 -43 -12 -31 -6 -230 7 -252 16
-25 40 -33 213 -65 77 -14 172 -32 210 -40 39 -8 86 -17 105 -20 19 -3 42 -8
50 -10 8 -2 31 -6 50 -9 41 -7 69 -12 165 -31 39 -8 133 -26 210 -41 77 -14
142 -30 145 -34 3 -5 4 -52 3 -107 -2 -115 8 -156 43 -172 18 -8 322 -11 1140
-11 l1115 0 24 26 c24 26 25 33 25 150 0 74 4 124 10 124 5 0 101 18 212 39
112 22 219 43 238 46 19 3 152 28 295 56 143 28 278 53 300 56 49 7 91 27 99
48 3 9 6 67 6 129 0 99 -2 115 -20 134 -25 27 20 24 -420 26 -395 2 -414 0
-427 -52 -5 -21 -10 -23 -72 -20 -36 2 -66 8 -67 13 -2 25 -18 44 -42 52 -15
5 -134 9 -264 8 -131 0 -238 0 -238 2 0 1 35 28 78 59 87 65 226 201 290 285
23 31 64 92 90 135 l47 80 75 -25 c65 -20 95 -24 220 -25 125 0 155 3 220 23
361 112 588 424 576 791 -6 212 -82 386 -231 536 -75 76 -115 105 -202 147
-138 68 -199 82 -364 82 l-135 0 -3 38 c-4 72 -35 122 -96 155 -24 13 -68 16
-230 18 -221 2 -259 -5 -271 -50 -6 -24 -9 -26 -70 -25 -45 1 -64 5 -64 14 0
7 -11 23 -24 36 l-25 24 -981 0 c-744 1 -990 -2 -1017 -11z m3032 -702 c70
-24 156 -109 179 -180 84 -251 -144 -479 -397 -396 l-47 16 6 71 c4 40 7 164
8 276 l1 204 25 9 c77 29 137 29 225 0z"/>
</g>
</svg>
